<svg xmlns="http://www.w3.org/2000/svg" viewBox="0 0 512 512">
  <rect width="512" height="512" rx="96" fill="#0a0f1c"/>
  <!-- Shelf -->
  <rect x="80" y="340" width="352" height="8" rx="2" fill="#334155"/>
  <!-- Books -->
  <rect x="110" y="160" width="40" height="180" rx="4" fill="#1e3a5f" stroke="#2563eb" stroke-width="1.5"/>
  <rect x="160" y="140" width="45" height="200" rx="4" fill="#1a3d2e" stroke="#10b981" stroke-width="1.5"/>
  <rect x="215" y="170" width="35" height="170" rx="4" fill="#3b1d54" stroke="#8b5cf6" stroke-width="1.5"/>
  <rect x="260" y="150" width="42" height="190" rx="4" fill="#4a1d1d" stroke="#ef4444" stroke-width="1.5"/>
  <rect x="312" y="165" width="38" height="175" rx="4" fill="#4a3a1d" stroke="#f59e0b" stroke-width="1.5"/>
  <!-- Book spine lines -->
  <line x1="130" y1="200" x2="130" y2="300" stroke="#3b82f6" stroke-width="1" opacity="0.5"/>
  <line x1="182" y1="180" x2="182" y2="300" stroke="#34d399" stroke-width="1" opacity="0.5"/>
  <line x1="232" y1="210" x2="232" y2="300" stroke="#a78bfa" stroke-width="1" opacity="0.5"/>
  <line x1="281" y1="190" x2="281" y2="300" stroke="#f87171" stroke-width="1" opacity="0.5"/>
  <line x1="331" y1="205" x2="331" y2="300" stroke="#fbbf24" stroke-width="1" opacity="0.5"/>
  <!-- Sparkle -->
  <circle cx="400" cy="130" r="3" fill="#fbbf24"/>
  <circle cx="385" cy="115" r="2" fill="#fbbf24" opacity="0.6"/>
  <circle cx="415" cy="120" r="1.5" fill="#fbbf24" opacity="0.4"/>
</svg>
